<svg width="86" height="22" viewBox="0 0 86 22" fill="none" xmlns="http://www.w3.org/2000/svg">
<path d="M4.88664 17.4962V0.876205H0.446641V21.4862H15.1466V17.4962H4.88664ZM28.139 21.8462C34.109 21.8462 39.089 16.9562 39.089 11.1662C39.089 5.37621 34.109 0.516204 28.139 0.516204C22.229 0.516204 17.189 5.37621 17.189 11.1662C17.189 16.9562 22.229 21.8462 28.139 21.8462ZM28.139 17.8262C24.689 17.8262 21.749 14.7662 21.749 11.1662C21.749 7.59621 24.689 4.53621 28.139 4.53621C31.619 4.53621 34.559 7.59621 34.559 11.1662C34.559 14.7662 31.619 17.8262 28.139 17.8262ZM51.7947 13.3562H56.5947V16.5062C55.4247 17.3462 53.9847 17.8262 52.5747 17.8262C49.0647 17.8262 46.0947 14.7662 46.0947 11.1662C46.0947 7.59621 49.0647 4.53621 52.5747 4.53621C54.4647 4.53621 56.4747 5.43621 57.7047 6.8462L60.9147 3.9662C58.8447 1.80621 55.6647 0.516204 52.5747 0.516204C46.6047 0.516204 41.5347 5.37621 41.5347 11.1662C41.5347 16.9562 46.6047 21.8462 52.5747 21.8462C55.6647 21.8462 58.8447 20.5562 60.9147 18.3962V9.90621H51.7947V13.3562ZM74.7796 21.8462C80.7496 21.8462 85.7296 16.9562 85.7296 11.1662C85.7296 5.37621 80.7496 0.516204 74.7796 0.516204C68.8696 0.516204 63.8296 5.37621 63.8296 11.1662C63.8296 16.9562 68.8696 21.8462 74.7796 21.8462ZM74.7796 17.8262C71.3296 17.8262 68.3896 14.7662 68.3896 11.1662C68.3896 7.59621 71.3296 4.53621 74.7796 4.53621C78.2596 4.53621 81.1996 7.59621 81.1996 11.1662C81.1996 14.7662 78.2596 17.8262 74.7796 17.8262Z" fill="#EA701D"/>
</svg>
